<?xml version="1.0" encoding="utf-8"?>
<!-- Generator: Adobe Illustrator 28.1.0, SVG Export Plug-In . SVG Version: 6.00 Build 0)  -->
<svg version="1.1" id="レイヤー_1" xmlns="http://www.w3.org/2000/svg" xmlns:xlink="http://www.w3.org/1999/xlink" x="0px"
	 y="0px" viewBox="0 0 200 200" style="enable-background:new 0 0 200 200;" xml:space="preserve">
<style type="text/css">
	.st0{fill:#005CA0;stroke:#000000;stroke-miterlimit:10;}
</style>
<path class="st0" d="M75.46,44.79c0-3.97-6.82-4.76-8.1-3.7c-4.87,4.02-41.02,36.16-43.06,38.19c-2.03,2.03-3.54,4.56,0,8.1
	c3.54,3.54,41.09,36.46,43.06,38.43c2.04,2.04,8.32,0.59,8.1-3.94c-0.23-4.86,0-15.9,0-16.67c0-1.6,0.74-1.62,2.77-1.62
	c39.61,0,54.95,22.81,56.48,25.46c10.43,18.03-5.81,32.82-20.29,39.58c-5.53,2.58-1.56,6.69,2.1,4.99
	c1.71-0.79,44.67-15.71,47.12-42.94c0.34-3.78,5.17-33.74-30.09-50.69c-30.32-14.58-57.36-16.52-56.45-16.52
	c0.07,0-1.45-0.15-1.45-1.85C75.66,59.46,75.46,52.36,75.46,44.79z"/>
</svg>
